# xmcd CD database file
#
# Track frame offsets:
#	150
#	13269
#	31731
#	49288
#	66830
#	88349
#	108345
#	123449
#	142356
#	159412
#	180404
#	199050
#	214344
#	232522
#	247740
#	264069
#	282141
#	297940
#	313142
#
# Disc length: 4421 seconds
#
# Revision: 0
# Processed by: cddbd v1.4PL0 Copyright (c) Steve Scherf et al.
# Submitted via: NeoAudio 9.9.9
#
DISCID=0f114313
DTITLE=Shania Twain - Up!
DYEAR=2003
DGENRE=Country
TTITLE0=Up!
TTITLE1=I'm Gonna Getcha Good
TTITLE2=She's Not Just A Pretty Face
TTITLE3=Juanita
TTITLE4=Forever And For Always
TTITLE5=Ain't No Particular Way
TTITLE6=It Only Hurts When I'm Breathing
TTITLE7=Nah!
TTITLE8=(Wanna Get To Know You) That Good!
TTITLE9=Cést LA Vie
TTITLE10=I'm Jelous
TTITLE11=Ka-Ching
TTITLE12=Thank You Baby
TTITLE13=Waiter! Bring Me Water!
TTITLE14=What A Way To Be
TTITLE15=I Ain't Going Down
TTITLE16=I'm Not In The Mood (To Say No)
TTITLE17=In My Car (I'll Be The Driver)
TTITLE18=When You Kiss Me
EXTD=YEAR: 2003
EXTT0=
EXTT1=
EXTT2=
EXTT3=
EXTT4=
EXTT5=
EXTT6=
EXTT7=
EXTT8=
EXTT9=
EXTT10=
EXTT11=
EXTT12=
EXTT13=
EXTT14=
EXTT15=
EXTT16=
EXTT17=
EXTT18=
PLAYORDER=
